HIERARCHY
ROOT Hips
{
	OFFSET 0.000000 89.005402 0.000000
	CHANNELS 6 Xposition Yposition Zposition Xrotation Yrotation Zrotation
	JOINT Spine
	{
		OFFSET 0.116900 10.681000 0.373400
		CHANNELS 3 Xrotation Yrotation Zrotation
		JOINT Spine1
		{
			OFFSET 0.000000 13.840401 0.053500
			CHANNELS 3 Xrotation Yrotation Zrotation
			JOINT Spine2
			{
				OFFSET 0.000000 14.712700 -0.366200
				CHANNELS 3 Xrotation Yrotation Zrotation
				JOINT Neck
				{
					OFFSET 0.000000 35.415497 -3.314200
					CHANNELS 3 Xrotation Yrotation Zrotation
					JOINT Head
					{
						OFFSET 0.000000 16.899200 1.218300
						CHANNELS 3 Xrotation Yrotation Zrotation
						JOINT HeadTop_End
						{
							OFFSET 0.000000 22.206207 2.192500
							CHANNELS 3 Xrotation Yrotation Zrotation
							End Site
							{
								OFFSET 0.000000 22.314178 0.000000
							}
						}
					}
				}
				JOINT LeftShoulder
				{
					OFFSET 12.896400 26.716293 -4.548400
					CHANNELS 3 Xrotation Yrotation Zrotation
					JOINT LeftArm
					{
						OFFSET 19.027000 -4.857010 -1.718400
						CHANNELS 3 Xrotation Yrotation Zrotation
						JOINT LeftForeArm
						{
							OFFSET 24.179897 0.000000 0.000000
							CHANNELS 3 Xrotation Yrotation Zrotation
							JOINT LeftHand
							{
								OFFSET 27.156403 0.000000 0.000000
								CHANNELS 3 Xrotation Yrotation Zrotation
								JOINT LeftHandIndex1
								{
									OFFSET 16.441200 0.000000 0.000000
									CHANNELS 3 Xrotation Yrotation Zrotation
									JOINT LeftHandIndex2
									{
										OFFSET 4.821899 0.000000 0.000000
										CHANNELS 3 Xrotation Yrotation Zrotation
										JOINT LeftHandIndex3
										{
											OFFSET 6.386497 0.000000 0.000000
											CHANNELS 3 Xrotation Yrotation Zrotation
											JOINT LeftHandIndex4
											{
												OFFSET 5.188988 0.000000 0.000000
												CHANNELS 3 Xrotation Yrotation Zrotation
												End Site
												{
													OFFSET -0.178703 5.185913 0.000177
												}
											}
										}
									}
								}
								JOINT LeftHandThumb1
								{
									OFFSET 6.534897 -5.032593 5.900300
									CHANNELS 3 Xrotation Yrotation Zrotation
									JOINT LeftHandThumb2
									{
										OFFSET 3.818176 -2.204422 2.204423
										CHANNELS 3 Xrotation Yrotation Zrotation
										JOINT LeftHandThumb3
										{
											OFFSET 3.252098 -1.877594 1.877601
											CHANNELS 3 Xrotation Yrotation Zrotation
											JOINT LeftHandThumb4
											{
												OFFSET 5.251778 -3.032120 3.032117
												CHANNELS 3 Xrotation Yrotation Zrotation
												End Site
												{
													OFFSET 0.000023 6.780014 0.000000
												}
											}
										}
									}
								}
							}
						}
					}
				}
				JOINT RightShoulder
				{
					OFFSET -12.896300 26.716293 -4.548400
					CHANNELS 3 Xrotation Yrotation Zrotation
					JOINT RightArm
					{
						OFFSET -19.027000 -4.857010 -1.718400
						CHANNELS 3 Xrotation Yrotation Zrotation
						JOINT RightForeArm
						{
							OFFSET -24.179897 0.000000 0.000000
							CHANNELS 3 Xrotation Yrotation Zrotation
							JOINT RightHand
							{
								OFFSET -27.156403 0.000000 0.000000
								CHANNELS 3 Xrotation Yrotation Zrotation
								JOINT RightHandThumb1
								{
									OFFSET -6.591202 -4.852203 5.988100
									CHANNELS 3 Xrotation Yrotation Zrotation
									JOINT RightHandThumb2
									{
										OFFSET -3.818176 -2.204422 2.204423
										CHANNELS 3 Xrotation Yrotation Zrotation
										JOINT RightHandThumb3
										{
											OFFSET -3.252098 -1.877594 1.877601
											CHANNELS 3 Xrotation Yrotation Zrotation
											JOINT RightHandThumb4
											{
												OFFSET -5.251778 -3.032120 3.032117
												CHANNELS 3 Xrotation Yrotation Zrotation
												End Site
												{
													OFFSET -0.000023 6.780014 0.000000
												}
											}
										}
									}
								}
								JOINT RightHandIndex1
								{
									OFFSET -16.029404 0.000000 0.000000
									CHANNELS 3 Xrotation Yrotation Zrotation
									JOINT RightHandIndex2
									{
										OFFSET -5.213303 0.000000 0.000000
										CHANNELS 3 Xrotation Yrotation Zrotation
										JOINT RightHandIndex3
										{
											OFFSET -6.386528 0.000000 0.000000
											CHANNELS 3 Xrotation Yrotation Zrotation
											JOINT RightHandIndex4
											{
												OFFSET -5.189026 0.000000 0.000000
												CHANNELS 3 Xrotation Yrotation Zrotation
												End Site
												{
													OFFSET 0.236702 5.183624 0.001972
												}
											}
										}
									}
								}
							}
						}
					}
				}
			}
		}
	}
	JOINT LeftUpLeg
	{
		OFFSET 14.073000 -7.904099 -1.463000
		CHANNELS 3 Xrotation Yrotation Zrotation
		JOINT LeftLeg
		{
			OFFSET -0.109806 -34.073280 4.093200
			CHANNELS 3 Xrotation Yrotation Zrotation
			JOINT LeftFoot
			{
				OFFSET 0.109806 -29.899420 -6.319000
				CHANNELS 3 Xrotation Yrotation Zrotation
				JOINT LeftToeBase
				{
					OFFSET 1.551100 -14.988700 20.535801
					CHANNELS 3 Xrotation Yrotation Zrotation
					JOINT LeftToe_End
					{
						OFFSET 0.221200 0.570800 13.248301
						CHANNELS 3 Xrotation Yrotation Zrotation
						End Site
						{
							OFFSET 0.000000 13.262435 0.000000
						}
					}
				}
			}
		}
	}
	JOINT RightUpLeg
	{
		OFFSET -13.839300 -7.904099 -1.463000
		CHANNELS 3 Xrotation Yrotation Zrotation
		JOINT RightLeg
		{
			OFFSET 0.109694 -34.073219 4.093300
			CHANNELS 3 Xrotation Yrotation Zrotation
			JOINT RightFoot
			{
				OFFSET -0.109694 -29.899384 -6.319200
				CHANNELS 3 Xrotation Yrotation Zrotation
				JOINT RightToeBase
				{
					OFFSET -1.551100 -14.988700 20.535801
					CHANNELS 3 Xrotation Yrotation Zrotation
					JOINT RightToe_End
					{
						OFFSET -0.221200 0.570900 13.248299
						CHANNELS 3 Xrotation Yrotation Zrotation
						End Site
						{
							OFFSET 0.000000 13.262440 0.000000
						}
					}
				}
			}
		}
	}
}
MOTION
Frames: 4
Frame Time: 0.033333
-3.248715 57.895851 3.603063 1.614962 -38.646580 1.188129 12.837646 -0.181923 -5.210191 21.973408 0.622897 3.038902 22.599240 0.183184 3.544557 -9.236253 7.156198 5.145185 -24.746856 29.290819 1.672845 -0.000000 -0.000000 0.000001 9.420794 -3.138615 -0.959129 -84.290968 -9.555222 -61.942835 -81.267524 4.869828 -84.804885 -43.934516 -3.488647 2.883367 9.479713 -1.289766 -20.785521 0.709464 2.796366 -28.467042 0.714021 2.804777 -28.559746 -0.000003 0.000001 0.000001 0.699114 9.503413 -2.418124 5.975200 12.647536 1.348337 -23.873577 -17.664203 1.604912 -0.000003 -0.000001 -0.000000 12.330221 11.194326 -0.470175 -51.313794 40.272038 45.410250 62.524931 122.056887 -57.254607 -1.930200 12.365929 -8.708743 13.942439 -4.273634 -5.300457 7.113245 -20.767492 -2.619540 -3.463364 -24.899772 -18.660562 -0.000001 0.000002 0.000000 0.357834 -5.832691 5.175922 0.094330 -0.933690 11.539920 0.777616 -2.578508 33.559933 -0.000000 0.000000 -0.000003 -64.162681 2.992807 1.852602 118.518371 14.312995 1.137151 -24.451340 4.024297 -2.524319 -33.138445 -0.443864 0.425545 -0.000000 0.000001 0.000000 -74.030084 -8.847874 -3.218642 97.904977 5.103524 -3.967704 -19.491381 -5.568892 -5.728638 -11.746666 1.547290 -1.031333 -0.000000 -0.000001 0.000000 
-8.027925 58.421783 7.976822 1.594277 -40.130237 2.235592 13.259018 0.213585 -6.069548 21.311577 0.754282 2.695820 21.930797 0.305184 3.107427 -9.153036 7.294066 5.072295 -23.933300 29.199994 1.589654 0.000001 0.000000 -0.000001 9.597572 -2.944120 -1.007290 -83.993322 -9.547295 -61.773986 -81.150878 5.509774 -84.655673 -43.761954 -3.617875 2.998496 9.479714 -1.289764 -20.785519 0.709464 2.796367 -28.467042 0.714016 2.804779 -28.559743 -0.000001 -0.000000 -0.000000 0.699115 9.503411 -2.418124 5.975199 12.647536 1.348335 -23.873579 -17.664204 1.604912 -0.000002 0.000001 0.000002 12.471078 11.044829 -0.440930 -51.369750 40.480451 45.592913 63.568625 122.626744 -57.897184 -1.620756 12.062305 -9.070430 13.942440 -4.273633 -5.300458 7.113245 -20.767492 -2.619541 -3.463365 -24.899772 -18.660560 0.000001 -0.000000 -0.000001 0.357835 -5.832688 5.175922 0.094329 -0.933691 11.539920 0.777618 -2.578509 33.559926 -0.000001 -0.000001 -0.000000 -75.239574 4.604489 -1.413417 107.589796 18.882051 1.406930 -14.611694 0.962811 1.013806 -20.046691 -0.412738 0.379966 -0.000000 -0.000002 0.000000 -66.660194 -9.445451 -2.812002 102.585213 4.679766 -3.803506 -29.952343 -2.798798 -8.134184 -14.736762 0.420000 -1.630121 -0.000000 -0.000001 -0.000000 
-12.493332 58.630821 12.056423 1.627921 -41.497023 3.488173 13.436216 0.512335 -7.001581 20.948226 0.974260 2.309581 21.562460 0.509646 2.652818 -9.115586 7.383281 5.019075 -23.345356 29.155205 1.448956 0.000001 -0.000000 0.000000 9.764030 -2.705896 -0.961573 -83.998725 -9.598531 -61.893965 -81.076558 6.116770 -84.256954 -43.544556 -3.538930 2.873025 9.479714 -1.289766 -20.785522 0.709461 2.796364 -28.467045 0.714022 2.804778 -28.559744 0.000002 0.000000 -0.000000 0.699116 9.503413 -2.418125 5.975201 12.647536 1.348336 -23.873577 -17.664203 1.604913 -0.000000 -0.000000 0.000001 12.738624 10.949075 -0.426850 -51.676839 40.513383 45.645010 64.748110 123.352369 -58.632625 -0.966212 11.830281 -9.414557 13.942440 -4.273634 -5.300457 7.113245 -20.767494 -2.619540 -3.463365 -24.899772 -18.660565 -0.000000 -0.000001 0.000001 0.357835 -5.832688 5.175922 0.094329 -0.933690 11.539920 0.777618 -2.578509 33.559933 -0.000001 0.000000 0.000001 -79.869691 4.098708 -2.856613 91.701485 18.203151 1.406199 -3.719020 1.738401 1.841735 -8.412254 -0.360163 -1.068327 0.000000 -0.000002 0.000001 -58.948999 -9.496338 -2.972235 106.026775 4.036176 -3.691209 -39.108413 0.496628 -9.599675 -18.256998 -0.933964 -2.155071 0.000000 -0.000002 -0.000001 
-16.733387 58.463356 15.971417 1.710746 -42.836088 4.723071 13.393494 0.857905 -7.828137 20.864544 1.242584 1.881211 21.479050 0.755757 2.178754 -9.094511 7.417108 4.984713 -22.997495 29.171294 1.226611 -0.000002 0.000001 0.000001 9.891190 -2.448402 -0.930297 -84.264590 -9.771136 -62.222040 -81.039102 6.682652 -83.675350 -43.257784 -3.311728 2.582700 9.479715 -1.289767 -20.785519 0.709464 2.796368 -28.467043 0.714018 2.804777 -28.559746 -0.000002 -0.000000 -0.000000 0.699115 9.503413 -2.418125 5.975198 12.647536 1.348337 -23.873576 -17.664203 1.604910 0.000001 -0.000000 0.000000 13.099152 10.910139 -0.427685 -52.187071 40.367473 45.587715 66.145683 124.300932 -59.504198 0.077605 11.722446 -9.716742 13.942440 -4.273634 -5.300458 7.113245 -20.767494 -2.619541 -3.463364 -24.899771 -18.660563 -0.000001 -0.000003 0.000001 0.357836 -5.832690 5.175922 0.094329 -0.933690 11.539920 0.777617 -2.578509 33.559933 -0.000000 0.000001 -0.000002 -81.239506 3.096793 -3.178592 75.865582 18.262674 1.989153 3.785746 2.702322 0.028968 0.932535 -0.343177 0.282345 -0.000000 -0.000001 0.000000 -51.109831 -9.292779 -3.427873 108.818130 3.803039 -3.559851 -47.164550 3.541018 -10.793213 -22.589336 -2.177444 -2.583462 -0.000000 0.000001 -0.000000 
